<svg width="34" height="34" viewBox="0 0 34 34" fill="none" xmlns="http://www.w3.org/2000/svg">
<g id="shopping-cart">
<path id="Vector" d="M14.1667 28.3333C13.4152 28.3333 12.6946 28.0348 12.1632 27.5034C11.6319 26.9721 11.3333 26.2514 11.3333 25.5C11.3333 24.7485 11.6319 24.0278 12.1632 23.4965C12.6946 22.9651 13.4152 22.6666 14.1667 22.6666C14.9181 22.6666 15.6388 22.9651 16.1701 23.4965C16.7015 24.0278 17 24.7485 17 25.5C17 26.2514 16.7015 26.9721 16.1701 27.5034C15.6388 28.0348 14.9181 28.3333 14.1667 28.3333ZM24.0833 28.3333C23.3319 28.3333 22.6112 28.0348 22.0799 27.5034C21.5485 26.9721 21.25 26.2514 21.25 25.5C21.25 24.7485 21.5485 24.0278 22.0799 23.4965C22.6112 22.9651 23.3319 22.6666 24.0833 22.6666C24.8348 22.6666 25.5555 22.9651 26.0868 23.4965C26.6182 24.0278 26.9167 24.7485 26.9167 25.5C26.9167 26.2514 26.6182 26.9721 26.0868 27.5034C25.5555 28.0348 24.8348 28.3333 24.0833 28.3333ZM5.61284 8.39088C5.25919 8.37947 4.92384 8.23096 4.6777 7.97676C4.43156 7.72256 4.29395 7.38259 4.29395 7.02875C4.29395 6.67491 4.43156 6.33495 4.6777 6.08074C4.92384 5.82654 5.25919 5.67803 5.61284 5.66663H7.24343C8.52126 5.66663 9.62626 6.55346 9.90393 7.80013L11.679 15.793C11.9567 17.0396 13.0617 17.9265 14.3395 17.9265H24.9815L27.0243 9.75229H13.7856C13.4353 9.73631 13.1046 9.58589 12.8623 9.33232C12.6201 9.07876 12.4849 8.74157 12.4849 8.39088C12.4849 8.04018 12.6201 7.70299 12.8623 7.44943C13.1046 7.19586 13.4353 7.04545 13.7856 7.02946H27.0243C27.4385 7.02934 27.8472 7.12364 28.2194 7.30519C28.5916 7.48674 28.9176 7.75077 29.1724 8.0772C29.4273 8.40363 29.6044 8.78388 29.6902 9.18902C29.7761 9.59417 29.7684 10.0135 29.6678 10.4153L27.625 18.5866C27.4777 19.1762 27.1376 19.6997 26.6585 20.0737C26.1795 20.4477 25.5892 20.6508 24.9815 20.6507H14.3395C13.0996 20.6509 11.8968 20.2282 10.9296 19.4524C9.96244 18.6766 9.28879 17.5941 9.01993 16.3837L7.24343 8.39088H5.61284Z" fill="#F8F8F8"/>
</g>
</svg>
